<svg width="312" height="88" viewBox="0 0 312 88" fill="none" xmlns="http://www.w3.org/2000/svg">
<path d="M47.4559 27.993C47.1043 27.3869 46.5996 26.8837 45.9924 26.534C45.3851 26.1842 44.6967 26.0001 43.9959 26.0001C43.2951 26.0001 42.6067 26.1842 41.9994 26.534C41.3922 26.8837 40.8875 27.3869 40.5359 27.993L24.5359 55.993C24.185 56.6008 24.0002 57.2902 24 57.992C23.9998 58.6938 24.1843 59.3833 24.5349 59.9913C24.8855 60.5992 25.3898 61.1042 25.9973 61.4556C26.6048 61.807 27.2941 61.9923 27.9959 61.993H59.9959C60.6977 61.9923 61.387 61.807 61.9945 61.4556C62.602 61.1042 63.1063 60.5992 63.4569 59.9913C63.8075 59.3833 63.992 58.6938 63.9918 57.992C63.9916 57.2902 63.8068 56.6008 63.4559 55.993L47.4559 27.993Z" stroke="black" stroke-width="4" stroke-linecap="round" stroke-linejoin="round"/>
<path fill-rule="evenodd" clip-rule="evenodd" d="M37.538 48.8948L35.0847 51.9352L38.6849 51.8283L38.9162 54.8596L41.1993 53.2723C41.2136 53.6565 41.1801 54.0487 41.0941 54.4416C40.5448 56.9535 38.0593 58.547 35.5474 57.9977C33.0355 57.4484 31.4419 54.9629 31.9912 52.451C32.5405 49.9391 35.0261 48.3455 37.538 48.8948Z" fill="black" stroke="black" stroke-miterlimit="1.5" stroke-linecap="round" stroke-linejoin="round"/>
<path fill-rule="evenodd" clip-rule="evenodd" d="M39.4926 47.7787L42.2486 32.993L44.4988 33.596L39.4926 47.7787Z" fill="black" stroke="black" stroke-miterlimit="1.5" stroke-linecap="round" stroke-linejoin="round"/>
<path fill-rule="evenodd" clip-rule="evenodd" d="M42.6257 46.1084L47.2937 37.1405L49.2224 38.447L42.6257 46.1084Z" fill="black" stroke="black" stroke-miterlimit="1.5" stroke-linecap="round" stroke-linejoin="round"/>
<path fill-rule="evenodd" clip-rule="evenodd" d="M41.2025 50.6947L51.0445 43.4313L52.243 45.4288L41.2025 50.6947Z" fill="black" stroke="black" stroke-miterlimit="1.5" stroke-linecap="round" stroke-linejoin="round"/>
<path fill-rule="evenodd" clip-rule="evenodd" d="M44.1516 52.0501L54.0176 49.4498L54.3503 51.7554L44.1516 52.0501Z" fill="black" stroke="black" stroke-miterlimit="1.5" stroke-linecap="round" stroke-linejoin="round"/>
<path d="M103.448 27.993C103.096 27.3869 102.591 26.8837 101.984 26.534C101.377 26.1842 100.688 26.0001 99.9877 26.0001C99.2869 26.0001 98.5985 26.1842 97.9912 26.534C97.384 26.8837 96.8793 27.3869 96.5277 27.993L80.5277 55.993C80.1768 56.6008 79.992 57.2902 79.9918 57.992C79.9916 58.6938 80.1761 59.3833 80.5267 59.9913C80.8773 60.5992 81.3816 61.1042 81.9891 61.4556C82.5966 61.807 83.2859 61.9923 83.9877 61.993H115.988C116.689 61.9923 117.379 61.807 117.986 61.4556C118.594 61.1042 119.098 60.5992 119.449 59.9913C119.799 59.3833 119.984 58.6938 119.984 57.992C119.983 57.2902 119.799 56.6008 119.448 55.993L103.448 27.993Z" stroke="black" stroke-width="4" stroke-linecap="round" stroke-linejoin="round"/>
<path d="M91.935 48.3925C91.7564 48.3932 91.5812 48.3428 91.4299 48.2472C91.2786 48.1517 91.1573 48.0149 91.0802 47.8528C91.0031 47.6906 90.9733 47.5098 90.9942 47.3313C91.0152 47.1529 91.0861 46.984 91.1986 46.8445L100.545 37.157C100.615 37.0756 100.711 37.0205 100.816 37.001C100.921 36.9814 101.03 36.9984 101.124 37.0492C101.219 37.1 101.293 37.1816 101.336 37.2805C101.378 37.3795 101.385 37.49 101.357 37.5939L99.5443 43.3114C99.4909 43.4553 99.4729 43.6101 99.492 43.7625C99.5111 43.9149 99.5667 44.0604 99.6539 44.1865C99.7412 44.3126 99.8576 44.4155 99.993 44.4864C100.129 44.5573 100.279 44.594 100.432 44.5935H107.04C107.219 44.5929 107.394 44.6433 107.546 44.7389C107.697 44.8344 107.818 44.9712 107.895 45.1333C107.972 45.2954 108.002 45.4762 107.981 45.6547C107.96 45.8332 107.889 46.0021 107.777 46.1416L98.4303 55.8291C98.3602 55.9105 98.2647 55.9655 98.1594 55.9851C98.0541 56.0047 97.9453 55.9877 97.8509 55.9369C97.7565 55.8861 97.6821 55.8045 97.6398 55.7055C97.5976 55.6066 97.59 55.4961 97.6184 55.3922L99.4311 49.6747C99.4845 49.5308 99.5025 49.376 99.4834 49.2236C99.4643 49.0712 99.4087 48.9257 99.3215 48.7996C99.2342 48.6735 99.1178 48.5706 98.9824 48.4997C98.8469 48.4288 98.6963 48.392 98.5436 48.3925H91.935Z" fill="black" stroke="black" stroke-linecap="round" stroke-linejoin="round"/>
<path d="M205.98 24C207.031 24 208.063 24.2764 208.974 24.8008C209.885 25.3253 210.642 26.0802 211.169 26.9893L211.176 27.001L227.176 55.001H227.175C227.698 55.9107 227.975 56.9416 227.976 57.9912C227.976 59.0439 227.699 60.0783 227.173 60.9902C226.647 61.9021 225.891 62.6595 224.98 63.1865C224.068 63.7135 223.034 63.9921 221.982 63.9932H189.978C188.925 63.9921 187.891 63.7135 186.98 63.1865C186.069 62.6595 185.312 61.902 184.786 60.9902C184.261 60.0784 183.983 59.0438 183.984 57.9912C183.984 56.9387 184.261 55.9046 184.787 54.9932H184.788L200.783 27.001L200.789 26.9893C201.317 26.0801 202.074 25.3254 202.985 24.8008C203.895 24.2762 204.929 24 205.98 24ZM199.629 48.4062C196.847 47.798 194.095 49.5631 193.487 52.3447C192.879 55.1261 194.643 57.8779 197.424 58.4863C200.206 59.0945 202.958 57.3303 203.567 54.5488C203.662 54.1145 203.699 53.6798 203.683 53.2539C203.676 53.0714 203.57 52.9069 203.406 52.8252C203.263 52.7539 203.095 52.7556 202.955 52.8271L202.898 52.8623L201.331 53.9502L201.167 51.79C201.149 51.5574 200.974 51.3723 200.752 51.335L200.654 51.3291L198.14 51.4023L199.911 49.209C200.02 49.0743 200.051 48.8928 199.993 48.7295C199.936 48.5662 199.798 48.4434 199.629 48.4062ZM215.874 48.9668L206.008 51.5674C205.763 51.6323 205.605 51.87 205.641 52.1211C205.677 52.3725 205.897 52.5571 206.151 52.5498L216.349 52.2559C216.491 52.2517 216.624 52.186 216.716 52.0771C216.808 51.9682 216.849 51.8255 216.828 51.6846L216.496 49.3789C216.476 49.2379 216.396 49.1109 216.278 49.0322C216.159 48.9538 216.012 48.9306 215.874 48.9668ZM213.126 42.9414C212.988 42.9139 212.845 42.9457 212.732 43.0293L202.89 50.293C202.683 50.446 202.625 50.7313 202.757 50.9521C202.873 51.1455 203.102 51.234 203.313 51.1787L203.402 51.1465L214.443 45.8809C214.57 45.8202 214.665 45.708 214.705 45.5732C214.746 45.4384 214.728 45.2927 214.655 45.1719L213.457 43.1748C213.385 43.054 213.264 42.9691 213.126 42.9414ZM204.362 32.5107C204.228 32.4747 204.084 32.4961 203.966 32.5703C203.848 32.6446 203.766 32.7654 203.74 32.9023L200.985 47.6875C200.937 47.944 201.095 48.1941 201.347 48.2617C201.568 48.3208 201.796 48.2227 201.907 48.0322L201.948 47.9453L206.953 33.7627C207 33.6314 206.99 33.4865 206.925 33.3633C206.86 33.24 206.746 33.1493 206.612 33.1133L204.362 32.5107ZM209.154 36.6562C209.017 36.6913 208.9 36.7831 208.834 36.9092L204.166 45.8779C204.049 46.103 204.119 46.3801 204.329 46.5225C204.513 46.6467 204.753 46.6338 204.921 46.5L204.988 46.4346L211.585 38.7734C211.678 38.6654 211.72 38.5222 211.701 38.3809C211.682 38.2396 211.605 38.1131 211.487 38.0332L209.559 36.7266C209.441 36.6466 209.293 36.6213 209.154 36.6562Z" fill="black"/>
<path d="M265.972 24C267.023 24 268.055 24.2764 268.966 24.8008C269.877 25.3253 270.634 26.0802 271.161 26.9893L271.168 27.001L287.168 55.001H287.167C287.691 55.9107 287.968 56.9416 287.968 57.9912C287.968 59.0439 287.691 60.0783 287.165 60.9902C286.639 61.9021 285.883 62.6595 284.972 63.1865C284.061 63.7135 283.026 63.9921 281.974 63.9932H249.97C248.917 63.9921 247.883 63.7135 246.972 63.1865C246.061 62.6595 245.304 61.902 244.779 60.9902C244.253 60.0784 243.976 59.0438 243.976 57.9912C243.976 56.9387 244.253 55.9046 244.779 54.9932H244.78L260.776 27.001L260.781 26.9893C261.309 26.0801 262.066 25.3254 262.977 24.8008C263.888 24.2762 264.921 24 265.972 24ZM267.55 34.1631C267.302 34.0283 267.013 33.9667 266.719 34.0029L266.571 34.0293C266.207 34.115 265.923 34.3362 265.735 34.5938V34.5928L256.388 46.8301L256.34 46.8994C256.135 47.2208 256.017 47.5894 255.983 47.96C255.948 48.3308 255.996 48.712 256.128 49.0635C256.26 49.4143 256.48 49.7441 256.79 49.9912C257.103 50.2405 257.495 50.3924 257.919 50.3916V50.3926H264.431C264.448 50.4263 264.466 50.4768 264.473 50.541C264.479 50.6082 264.473 50.6748 264.456 50.7305L264.446 50.7686L262.633 57.9912C262.63 58.0016 262.627 58.012 262.625 58.0225C262.559 58.3271 262.576 58.6508 262.677 58.9502C262.778 59.2479 262.971 59.5439 263.273 59.749C263.584 59.9607 263.978 60.0497 264.372 59.957C264.737 59.8713 265.019 59.65 265.208 59.3926L265.209 59.3936L274.556 47.1562C274.573 47.134 274.589 47.1105 274.604 47.0869C274.809 46.7656 274.927 46.3969 274.961 46.0264C274.996 45.6555 274.948 45.2744 274.816 44.9229C274.7 44.6157 274.516 44.3253 274.265 44.0918L274.154 43.9951L274.032 43.9062C273.742 43.71 273.396 43.5931 273.025 43.5938H266.513C266.495 43.56 266.477 43.5095 266.471 43.4453C266.464 43.3781 266.471 43.3115 266.487 43.2559C266.491 43.2432 266.495 43.2306 266.498 43.2178L268.311 35.9951C268.313 35.9847 268.316 35.9744 268.319 35.9639C268.385 35.6592 268.368 35.3355 268.267 35.0361C268.179 34.7755 268.019 34.5165 267.779 34.3184L267.671 34.2373L267.55 34.1631ZM285.957 57.7178C285.952 57.6456 285.946 57.5736 285.937 57.502C285.946 57.5736 285.952 57.6456 285.957 57.7178ZM285.924 57.416C285.917 57.3657 285.909 57.3156 285.9 57.2656C285.909 57.3156 285.917 57.3657 285.924 57.416ZM285.882 57.1768C285.867 57.1035 285.851 57.0303 285.831 56.958C285.851 57.0303 285.867 57.1034 285.882 57.1768ZM266.302 44.585V44.5859C266.266 44.5805 266.23 44.5714 266.195 44.5605C266.23 44.5712 266.266 44.5795 266.302 44.585ZM266.181 44.5557C266.149 44.5454 266.119 44.5329 266.088 44.5186C266.119 44.5328 266.149 44.5455 266.181 44.5557ZM269.432 27.9932L269.311 27.7979C269.309 27.7951 269.307 27.7927 269.305 27.79C269.349 27.8565 269.392 27.924 269.432 27.9932ZM263.975 26.5342L263.752 26.6719C263.683 26.7179 263.616 26.7663 263.55 26.8164C263.685 26.7136 263.828 26.6195 263.976 26.5342C264.052 26.4905 264.129 26.4496 264.207 26.4111C264.129 26.4497 264.051 26.4903 263.975 26.5342Z" fill="black"/>
</svg>
